<svg width="391" height="391" viewBox="0 0 391 391" fill="none" xmlns="http://www.w3.org/2000/svg">
<circle cx="195.5" cy="195.5" r="195.5" fill="url(#paint0_linear)"/>
<circle cx="196.5" cy="195.5" r="190.5" fill="white"/>
<mask id="mask0" mask-type="alpha" maskUnits="userSpaceOnUse" x="6" y="5" width="381" height="381">
<circle cx="196.5" cy="195.5" r="190.5" fill="white"/>
</mask>
<g mask="url(#mask0)">
<path d="M-91.2194 97.7366C-140.925 124.853 -198.696 128.59 -221.369 127.069V320.011C-166.432 394.971 224.018 470.583 205.051 218.977C186.084 -32.6293 -29.0877 63.8415 -91.2194 97.7366Z" fill="url(#paint1_linear)"/>
<path d="M88.5557 260.78C-29.8076 325.516 -167.379 334.438 -221.369 330.807V791.434C-90.5466 970.393 839.228 1150.91 794.063 550.227C748.898 -50.4543 236.51 179.859 88.5557 260.78Z" fill="url(#paint2_radial)" style="mix-blend-mode:multiply"/>
<ellipse cx="396.221" cy="144.803" rx="334.911" ry="336.448" fill="url(#paint3_radial)" style="mix-blend-mode:multiply"/>
</g>
<defs>
<linearGradient id="paint0_linear" x1="195.5" y1="0" x2="195.5" y2="391" gradientUnits="userSpaceOnUse">
<stop stop-color="#9E00FF"/>
<stop offset="1" stop-color="#00FFF0"/>
</linearGradient>
<linearGradient id="paint1_linear" x1="88.884" y1="173.711" x2="-33.0569" y2="340.552" gradientUnits="userSpaceOnUse">
<stop stop-color="#00FFFF"/>
<stop offset="1" stop-color="#BD00FF" stop-opacity="0"/>
</linearGradient>
<radialGradient id="paint2_radial" cx="0" cy="0" r="1" gradientUnits="userSpaceOnUse" gradientTransform="translate(286.799 258.089) rotate(150.152) scale(227.943 284.075)">
<stop stop-color="#7737FE"/>
<stop offset="1" stop-color="#FF00E5" stop-opacity="0"/>
</radialGradient>
<radialGradient id="paint3_radial" cx="0" cy="0" r="1" gradientUnits="userSpaceOnUse" gradientTransform="translate(191.9 225.226) rotate(108.703) scale(165.224 164.625)">
<stop stop-color="#9E00FF"/>
<stop offset="1" stop-color="#001AFF" stop-opacity="0.21"/>
</radialGradient>
</defs>
</svg>
