<?xml version="1.0" encoding="utf-8"?>
<!-- Generator: Adobe Illustrator 22.1.0, SVG Export Plug-In . SVG Version: 6.00 Build 0)  -->
<svg version="1.1" id="Layer_1" xmlns="http://www.w3.org/2000/svg" xmlns:xlink="http://www.w3.org/1999/xlink" x="0px" y="0px"
	 viewBox="0 0 177.2 77.7" style="enable-background:new 0 0 177.2 77.7;" xml:space="preserve">
<style type="text/css">
	.st0{fill:#E77724;}
	.st1{fill:#004F71;}
</style>
<title>emids-logo-RGB</title>
<path class="st0" d="M8.7,35.6h10.8v-1.7c0-3.2-1-5.4-5.2-5.4s-5.6,2.2-5.6,5.4C8.7,33.9,8.7,35.6,8.7,35.6z M15.4,49.7
	c3.5,0,7-0.6,10.4-1.6l1.3,6.3c-4,1.4-8.2,2.2-12.5,2.1c-10.6,0-14.3-4.9-14.3-13v-8.8c0-7.1,3.2-13.1,14.1-13.1s13.3,6.3,13.3,13.5
	v7.2h-19v1.8C8.7,48.2,10.2,49.8,15.4,49.7"/>
<path class="st0" d="M54.3,55.9V32.5c0-1.8-0.8-2.7-2.7-2.7c-2.1,0-5.8,1.2-8.8,2.8v23.3h-8.5V22.3h6.5l0.8,2.8
	c4.2-2.1,8.8-3.3,13.6-3.5c3.3,0,5.3,1.3,6.4,3.6c4.2-2.1,8.9-3.4,13.6-3.6c5.6,0,7.7,3.9,7.7,9.9v24.3h-8.5V32.5
	c0-1.8-0.8-2.7-2.7-2.7s-6.2,1.3-8.8,2.8v23.3H54.3z"/>
<path class="st0" d="M155.1,56.6c-4-0.1-7.9-0.7-11.7-1.9l1.2-6.4c3.3,0.9,6.7,1.4,10.1,1.4c3.8,0,4.3-0.8,4.3-3.4
	c0-2.1-0.4-3.1-5.9-4.4c-8.3-2-9.2-4.1-9.2-10.6c0-6.8,3-9.7,12.7-9.7c3.4,0,6.8,0.4,10.2,1.2l-0.8,6.7c-3.1-0.6-6.2-0.9-9.3-1
	c-3.7,0-4.3,0.8-4.3,2.9c0,2.7,0.2,2.9,4.8,4.1c9.5,2.5,10.4,3.7,10.4,10.6C167.4,52.6,165.4,56.6,155.1,56.6"/>
<path class="st0" d="M127.4,29.7c-2.5-0.5-5-0.8-7.5-0.9c-3.1,0-4.2,1.4-4.2,4.5v11.9c0,2.8,1,4.3,4.2,4.3c2.8-0.1,5.5-1.2,7.6-3
	L127.4,29.7L127.4,29.7z M107.1,33.5c0-7.5,3.3-11.9,11.2-11.9c3,0,6,0.4,9,1v-14l8.5-1.2v48.4H129l-0.8-2.8
	c-3.1,2.3-6.9,3.5-10.7,3.5c-6.8,0-10.4-4-10.4-11.7C107.1,44.8,107.1,33.5,107.1,33.5z"/>
<path class="st0" d="M91.3,22.3h8.5v33.6h-8.5V22.3z M91.3,17.6v-5.4l8.5-3.4v8.8H91.3z"/>
<polygon class="st1" points="108.2,0.1 108.2,5.4 99.7,8.8 99.7,0.1 "/>
<path class="st1" d="M5.8,68.3c0-0.6-0.2-1-1-1s-1.1,0.5-1.1,1v0.4h2.1V68.3z M3.7,70.5v0.2c0,0.9,0.4,1.2,1.5,1.2
	c0.8,0,1.7-0.1,2.5-0.3l0.4,1.8c-1,0.3-2,0.5-3.1,0.5c-2.7,0-3.7-1.3-3.7-3.3v-1.9c0-1.8,0.8-3.3,3.5-3.3s3.3,1.6,3.3,3.4v1.7
	L3.7,70.5z"/>
<polygon class="st1" points="14.2,69.6 16.8,73.7 14.4,73.7 12.9,71.5 11.5,73.7 9.1,73.7 11.7,69.6 9.1,65.6 11.5,65.6 12.9,67.8 
	14.4,65.6 16.8,65.6 "/>
<path class="st1" d="M20.6,71.6c0.5,0.1,1,0.2,1.5,0.2c0.4,0,0.8-0.3,0.9-0.7c0-0.1,0-0.1,0-0.2v-2.4c0-0.6-0.2-0.9-0.9-0.9
	c-0.6,0-1.1,0.3-1.5,0.6V71.6z M25.5,70.9c0,1.9-0.8,3-2.8,3c-0.7,0-1.4-0.1-2.1-0.2v3.4l-2.4,0.3V65.6h1.9l0.2,0.7
	c0.8-0.5,1.6-0.8,2.5-0.8c1.7,0,2.6,1,2.6,3L25.5,70.9z"/>
<path class="st1" d="M31.4,68.3c0-0.6-0.2-1-1-1s-1.1,0.5-1.1,1v0.4h2.1V68.3z M29.2,70.5v0.2c0,0.9,0.4,1.2,1.5,1.2
	c0.8,0,1.7-0.1,2.5-0.3l0.3,1.8c-1,0.3-2,0.5-3.1,0.5c-2.7,0-3.7-1.3-3.7-3.3v-1.9c0-1.8,0.8-3.3,3.5-3.3s3.3,1.6,3.3,3.4v1.7
	L29.2,70.5z"/>
<path class="st1" d="M37.8,68.8v5h-2.4v-8.2h2l0.2,0.8c0.7-0.4,1.4-0.8,2.2-1l0.2,2.3C39.2,67.9,38.5,68.3,37.8,68.8"/>
<path class="st1" d="M49.9,68.3c0-0.6-0.2-1-1-1s-1.1,0.5-1.1,1v0.4h2.1V68.3z M47.8,70.5v0.2c0,0.9,0.4,1.2,1.5,1.2
	c0.8,0,1.7-0.1,2.5-0.3l0.4,1.8c-1,0.3-2,0.5-3.1,0.5c-2.7,0-3.7-1.3-3.7-3.3v-1.9c0-1.8,0.8-3.3,3.5-3.3s3.3,1.6,3.3,3.4v1.7
	L47.8,70.5z"/>
<path class="st1" d="M58.8,73.7v-5.4c0-0.3-0.2-0.5-0.5-0.6h-0.1c-0.6,0.1-1.2,0.3-1.8,0.6v5.4H54v-8.1h1.8l0.3,0.6
	c1-0.5,2.1-0.8,3.3-0.8c1.4,0,1.9,1,1.9,2.6v5.7C61.3,73.7,58.8,73.7,58.8,73.7z"/>
<path class="st1" d="M41.2,65.6h2.4v8.1h-2.4V65.6z M41.2,62h2.4v2.6h-2.4V62z"/>
<path class="st1" d="M74.2,68.3c0-0.6-0.2-1-1-1s-1.1,0.5-1.1,1v0.4h2.1V68.3z M72.1,70.5v0.2c0,0.9,0.4,1.2,1.5,1.2
	c0.8,0,1.7-0.1,2.5-0.3l0.3,1.8c-1,0.3-2,0.5-3.1,0.5c-2.7,0-3.7-1.3-3.7-3.3v-1.9c0-1.8,0.8-3.3,3.5-3.3s3.3,1.6,3.3,3.4v1.7
	L72.1,70.5z"/>
<path class="st1" d="M65.3,70.6c0,0.8,0.3,1.2,1.3,1.2c0.6,0,1.1-0.1,1.7-0.2l0.3,2c-0.7,0.2-1.3,0.2-2,0.2c-2.7,0-3.8-1-3.8-3.3
	v-1.8c0-2.3,1.1-3.3,3.8-3.3c0.7,0,1.3,0.1,2,0.2l-0.3,2c-0.6-0.1-1.1-0.2-1.7-0.2c-1,0-1.3,0.4-1.3,1.2V70.6z"/>
<path class="st1" d="M158.3,71.6c0.5,0.1,1,0.2,1.6,0.2c0.4,0,0.8-0.3,0.9-0.7c0-0.1,0-0.1,0-0.2v-2.4c0-0.6-0.2-0.9-0.9-0.9
	c-0.6,0-1.1,0.3-1.6,0.6V71.6z M163.1,70.9c0,1.9-0.8,3-2.8,3c-0.7,0-1.4-0.1-2.1-0.2v3.4l-2.4,0.3V65.6h1.9l0.2,0.7
	c0.8-0.5,1.6-0.8,2.5-0.8c1.7,0,2.6,1,2.6,3v2.4C163,70.9,163.1,70.9,163.1,70.9z"/>
<path class="st1" d="M84.2,71.6c0.5,0.1,1,0.2,1.6,0.2c0.4,0,0.8-0.3,0.9-0.7c0-0.1,0-0.1,0-0.2v-2.4c0-0.6-0.2-0.9-0.9-0.9
	c-0.6,0-1.1,0.3-1.6,0.6V71.6z M89.1,70.9c0,1.9-0.8,3-2.8,3c-0.7,0-1.4-0.1-2.1-0.2v3.4l-2.4,0.3V65.6h1.9l0.2,0.7
	c0.8-0.5,1.6-0.8,2.5-0.8c1.7,0,2.6,1,2.6,3v2.4C89,70.9,89.1,70.9,89.1,70.9z"/>
<path class="st1" d="M101.7,68.8v5h-2.4v-8.2h2l0.2,0.8c0.7-0.4,1.4-0.8,2.2-1l0.2,2.3C103.1,67.9,102.4,68.3,101.7,68.8"/>
<path class="st1" d="M116.1,73.7v-5.4c0-0.3-0.1-0.5-0.4-0.6c-0.1,0-0.1,0-0.2,0c-0.6,0.1-1.2,0.3-1.8,0.6v5.4h-2.4v-8.1h1.8
	l0.3,0.6c1-0.5,2.1-0.8,3.3-0.8c1.4,0,1.9,1,1.9,2.6v5.7C118.6,73.7,116.1,73.7,116.1,73.7z"/>
<path class="st1" d="M124.8,68.3c0-0.6-0.2-1-1-1s-1.1,0.5-1.1,1v0.4h2.1V68.3z M122.6,70.5v0.2c0,0.9,0.4,1.2,1.5,1.2
	c0.8,0,1.7-0.1,2.5-0.3l0.4,1.8c-1,0.3-2,0.5-3.1,0.5c-2.7,0-3.7-1.3-3.7-3.3v-1.9c0-1.8,0.8-3.3,3.5-3.3s3.3,1.6,3.3,3.4v1.7
	L122.6,70.5z"/>
<path class="st1" d="M131.3,68.8v5h-2.4v-8.2h2l0.2,0.8c0.7-0.4,1.4-0.8,2.2-1l0.2,2.3C132.6,67.9,131.9,68.3,131.3,68.8"/>
<path class="st1" d="M137.2,73.9c-1,0-2-0.2-3-0.5l0.4-1.8c0.8,0.2,1.6,0.4,2.5,0.4c0.7,0,0.8-0.2,0.8-0.7s0-0.6-1.3-0.9
	c-2-0.5-2.2-1-2.2-2.5c0-1.7,0.7-2.4,3.1-2.4c0.8,0,1.7,0.1,2.5,0.3l-0.2,1.9c-0.7-0.1-1.5-0.2-2.3-0.2c-0.7,0-0.9,0.2-0.9,0.6
	s0.1,0.6,1,0.8c2.3,0.5,2.5,1,2.5,2.6S139.5,73.9,137.2,73.9"/>
<rect x="164.9" y="71" class="st1" width="2.4" height="2.8"/>
<path class="st1" d="M94.8,70.8h-1.2c-0.5,0-0.7,0.1-0.7,0.6s0.2,0.6,0.7,0.6c0.4,0,0.8-0.1,1.2-0.3V70.8z M95.3,73.7l-0.2-0.5
	c-0.7,0.4-1.5,0.7-2.3,0.7c-1.5,0-2.1-1.1-2.1-2.5c0-1.6,0.8-2.3,2.4-2.3h1.8v-0.6c0-0.8-0.2-1.1-1.4-1.1c-0.7,0-1.5,0.1-2.2,0.2
	L91,65.8c1-0.3,2-0.4,3-0.4c2.8,0,3.5,0.8,3.5,3.1v5.2L95.3,73.7L95.3,73.7z"/>
<path class="st1" d="M108,73.9c-1.6,0-2.5-0.6-2.5-2.1v-4.3h-1.1v-1.9h1.1v-2l2.4-0.3v2.3h1.9l-0.1,1.9h-1.8v3.9
	c0,0.3,0.2,0.4,0.5,0.4s0.7-0.1,1-0.2l0.3,1.8C109.2,73.7,108.6,73.8,108,73.9"/>
<path class="st1" d="M146.7,73.7v-5.4c0-0.3-0.2-0.5-0.5-0.6h-0.1c-0.6,0.1-1.2,0.3-1.8,0.6v5.4h-2.4V62.3l2.4-0.3v4.2
	c0.9-0.5,1.9-0.7,2.9-0.8c1.4,0,1.9,1,1.9,2.6v5.7L146.7,73.7L146.7,73.7z"/>
<path class="st1" d="M151.2,65.6h2.4v8.1h-2.4V65.6z M151.2,62h2.4v2.6h-2.4V62z"/>
<path class="st0" d="M173.4,21.7c1.9,0,3.5,1.5,3.5,3.4s-1.5,3.5-3.4,3.5s-3.5-1.5-3.5-3.4l0,0c-0.1-1.8,1.3-3.4,3.2-3.4
	C173.2,21.7,173.3,21.7,173.4,21.7z M173.4,27.8c1.5,0,2.7-1.2,2.7-2.6c0-1.5-1.2-2.7-2.6-2.7c-1.5,0-2.7,1.2-2.7,2.6l0,0
	c-0.1,1.4,0.9,2.6,2.3,2.7C173.1,27.8,173.2,27.8,173.4,27.8z M173.5,25.6h-0.6v1h-0.5v-3.2h1.2c0.7,0,1,0.3,1,0.8v0.5
	c0,0.3-0.2,0.6-0.5,0.8l0.8,1.1h-0.6L173.5,25.6z M173.5,23.9h-0.7V25h0.7c0.3,0,0.5-0.1,0.5-0.4v-0.4C174,24,173.8,23.9,173.5,23.9
	L173.5,23.9z"/>
</svg>
