<svg id="Layer_1" data-name="Layer 1" xmlns="http://www.w3.org/2000/svg" viewBox="0 0 320.66 113.13"><defs><style>.cls-1{fill:#1e96de;}.cls-1,.cls-2{fill-rule:evenodd;}.cls-2,.cls-3{fill:#fff;}</style></defs><title>Saama Logo RGB White Blue Tagline NEW</title><path class="cls-1" d="M273.68,244.76a55.68,55.68,0,0,1,41.18,15.33c9,8.56,17.32,21.81,17.65,38.86.37,18.7-6.12,31.32-15.32,41.19a55.3,55.3,0,0,1-38.87,17.65c-17.87.62-31.73-6.25-41.18-15.33-9.75-9.36-16.72-21.39-17.66-38.86-1-18.15,6.59-31.69,15.18-41a55,55,0,0,1,26.48-15.95A60,60,0,0,1,273.68,244.76Zm-17,33.6c-2.21,7.12-2.44,16.74,1.54,23.22,3,.78,6,1.57,9,2.33a36.15,36.15,0,0,1-2.63-15.64c.66-10.61,6.38-18,12.23-23.23.25-.22.94-.58.78-1.08-2.8-.87-5.85-1.49-8.67-2.32A30.94,30.94,0,0,0,256.65,278.36ZM284.83,299a35.13,35.13,0,0,1,2.47,15.18c-.66,10.6-6.37,18-12.23,23.22-.25.22-.93.59-.77,1.08,2.73.89,5.8,1.43,8.51,2.33,10.82-5.72,18.61-25.47,10.84-39.95-3-.78-6-1.57-9-2.32C284.69,298.67,284.64,298.93,284.83,299Z" transform="translate(-219.4 -244.69)"/><path class="cls-2" d="M377.11,284.71v6.81c-2.95-2.56-14.39-4.41-14.87,1.39-.24,3,2.78,4.1,5.58,5.11,5.54,2,11.84,4.13,11,12.07-.94,9.15-15.43,11.13-24.35,7.29,0-2.27,0-4.9,0-7.18a25.6,25.6,0,0,0,4,2.2c4.32,1.51,13.31,2.08,12.6-4-.12-1-1.6-2.28-2.48-2.79-3.74-2.17-9.24-2.76-12.08-6-3.41-3.95-2.2-10.07,1.09-12.85C362.2,282.82,370.34,282.44,377.11,284.71Z" transform="translate(-219.4 -244.69)"/><path class="cls-2" d="M411.79,318.31H404.2c0-1.71,0-3.67,0-5.37-1.76,2.74-4.46,5.73-8.79,6.18-6.88.71-12.45-2.68-12.53-9.79-.07-5.65,2.62-8.65,6.53-10.26,4.11-1.68,9.59-1.84,14.83-2.6.13-5.42-2.67-7.84-8.6-7.36-4.33.36-7.47,2.82-9.36,4,0-2.12-.08-4.34-.08-6.45,5-3.91,17.17-4.83,22.07-.52,2.74,2.42,3.59,6.53,3.59,11.21C411.82,304.79,411.79,318.31,411.79,318.31Zm-20.9-12.86a5.13,5.13,0,0,0,2.16,7.19c5.25,2.3,10.84-1.38,11.15-7.31.06-1.13,0-3.71-.05-3.74s-2.73.39-4.15.53C396.22,302.52,392.3,302.85,390.89,305.45Z" transform="translate(-219.4 -244.69)"/><path class="cls-2" d="M485.8,291.36c2.62-3.12,6.19-7.47,11.77-8.05,6.46-.66,10.35,2.9,10.06,9.45a52.63,52.63,0,0,1-1.37,8.14c-1.32,6.1-2.18,10.6-3.74,17.56h-8c1.1-5.94,2.54-12.29,3.87-18.58.94-4.41,2.3-11.63-4.46-10-4.18,1-8.17,6.15-9.47,11.39-1.4,5.65-2.47,11.67-3.56,17.19H472.8c1.15-6,2.52-12.45,3.87-18.89.77-3.7,2.17-9.27-2.17-9.91a6.45,6.45,0,0,0-3.1.47c-4,1.6-7.43,6.26-8.67,11.61s-2.5,11.48-3.56,16.72H451c2.28-11.51,5.25-22.32,7-34.37h7.9c-.17,2.51-.65,4.72-.93,7.12,2.4-2.66,5.89-7.31,11.15-7.9C482,282.64,485.44,285.64,485.8,291.36Z" transform="translate(-219.4 -244.69)"/><path class="cls-2" d="M446.32,318.31h-7.59c0-1.71,0-3.67,0-5.37-1.76,2.74-4.46,5.73-8.8,6.18-6.87.71-12.45-2.68-12.53-9.79-.06-5.65,2.62-8.65,6.54-10.26,4.11-1.68,9.58-1.84,14.83-2.6.13-5.42-2.67-7.84-8.6-7.36-4.33.36-7.47,2.82-9.36,4,0-2.12-.08-4.34-.08-6.45,5-3.91,17.17-4.83,22.07-.52,2.74,2.42,3.59,6.53,3.59,11.21C446.35,304.79,446.32,318.31,446.32,318.31Zm-20.9-12.86a5.12,5.12,0,0,0,2.16,7.19c5.25,2.3,10.84-1.38,11.15-7.31.06-1.13,0-3.71-.05-3.74s-2.73.39-4.15.53C430.75,302.52,426.83,302.85,425.42,305.45Z" transform="translate(-219.4 -244.69)"/><path class="cls-2" d="M540,318.31h-7.59c0-1.71,0-3.67,0-5.37-1.76,2.74-4.46,5.73-8.8,6.18-6.87.71-12.45-2.68-12.53-9.79-.06-5.65,2.62-8.65,6.53-10.26,4.12-1.68,9.59-1.84,14.84-2.6.13-5.42-2.67-7.84-8.6-7.36-4.34.36-7.47,2.82-9.36,4,0-2.12-.09-4.34-.09-6.45,5-3.91,17.18-4.83,22.08-.52,2.74,2.42,3.59,6.53,3.59,11.21C540.06,304.79,540,318.31,540,318.31Zm-20.91-12.86a5.13,5.13,0,0,0,2.17,7.19c5.25,2.3,10.84-1.38,11.15-7.31a34.8,34.8,0,0,0-.06-3.74s-2.73.39-4.14.53C524.45,302.52,520.54,302.85,519.12,305.45Z" transform="translate(-219.4 -244.69)"/><path class="cls-3" d="M359.61,330.79l-.41,2.08h2v1.23H359l-.58,3.06h-1.31l.59-3.06h-1.82l-.58,3.06H354l.56-3.06h-1.83v-1.23h2.07l.42-2.08h-1.94v-1.23h2.15l.59-3.1h1.31l-.58,3.1h1.84l.59-3.1h1.28l-.59,3.1h1.84v1.23Zm-3.54,2.08h1.83l.42-2.08h-1.83Z" transform="translate(-219.4 -244.69)"/><path class="cls-3" d="M367.68,340.16H366v-6.92c0-.82,0-1.48.05-2a5.33,5.33,0,0,1-.41.39L364,333l-.87-1.09,3.15-2.48h1.44Z" transform="translate(-219.4 -244.69)"/><path class="cls-3" d="M375.37,329.91a1,1,0,0,1,.25-.71,1,1,0,0,1,.72-.25,1,1,0,0,1,.71.25,1,1,0,0,1,.25.71.9.9,0,0,1-.25.69,1,1,0,0,1-.71.26,1,1,0,0,1-.72-.26A.9.9,0,0,1,375.37,329.91Zm1.82,10.25h-1.72v-8.1h1.72Z" transform="translate(-219.4 -244.69)"/><path class="cls-3" d="M386.69,340.16H385v-5a2.19,2.19,0,0,0-.37-1.4,1.46,1.46,0,0,0-1.2-.46,1.91,1.91,0,0,0-1.6.64,3.54,3.54,0,0,0-.5,2.16v4h-1.73v-8.1h1.35l.24,1.06h.09a2.39,2.39,0,0,1,1-.89,3.51,3.51,0,0,1,1.5-.32q2.91,0,2.91,3Z" transform="translate(-219.4 -244.69)"/><path class="cls-3" d="M399.63,340.16l-1.07-3h-4.09l-1.05,3h-1.85l4-10.75h1.9l4,10.75Zm-1.53-4.48-1-2.92c-.07-.19-.17-.5-.3-.92s-.22-.73-.27-.92a14.88,14.88,0,0,1-.58,2l-1,2.8Z" transform="translate(-219.4 -244.69)"/><path class="cls-3" d="M402.81,340.16V329.45h1.75v10.71Z" transform="translate(-219.4 -244.69)"/><path class="cls-3" d="M415.66,330.8a2.86,2.86,0,0,0-2.37,1.07,5.57,5.57,0,0,0,0,5.93,2.93,2.93,0,0,0,2.4,1,5.68,5.68,0,0,0,1.32-.14c.43-.09.87-.2,1.33-.34v1.5a8,8,0,0,1-2.86.47,4.56,4.56,0,0,1-3.61-1.42,6,6,0,0,1-1.26-4.08,6.57,6.57,0,0,1,.61-2.92A4.45,4.45,0,0,1,413,330a5.4,5.4,0,0,1,2.72-.66,6.87,6.87,0,0,1,3,.68l-.63,1.46a9.82,9.82,0,0,0-1.15-.45A4.07,4.07,0,0,0,415.66,330.8Z" transform="translate(-219.4 -244.69)"/><path class="cls-3" d="M422.06,340.16h-1.72v-11.4h1.72Z" transform="translate(-219.4 -244.69)"/><path class="cls-3" d="M424.33,329.91a1,1,0,0,1,.25-.71,1,1,0,0,1,.72-.25,1,1,0,0,1,.71.25,1,1,0,0,1,.25.71.9.9,0,0,1-.25.69,1,1,0,0,1-.71.26,1,1,0,0,1-.72-.26A.9.9,0,0,1,424.33,329.91Zm1.82,10.25h-1.72v-8.1h1.72Z" transform="translate(-219.4 -244.69)"/><path class="cls-3" d="M435.65,340.16h-1.73v-5a2.13,2.13,0,0,0-.38-1.4,1.44,1.44,0,0,0-1.19-.46,1.91,1.91,0,0,0-1.6.64,3.54,3.54,0,0,0-.5,2.16v4h-1.73v-8.1h1.35l.24,1.06h.09a2.39,2.39,0,0,1,1-.89,3.51,3.51,0,0,1,1.5-.32q2.91,0,2.91,3Z" transform="translate(-219.4 -244.69)"/><path class="cls-3" d="M437.85,329.91a1,1,0,0,1,.26-.71,1,1,0,0,1,.72-.25,1,1,0,0,1,.7.25,1,1,0,0,1,.26.71.9.9,0,0,1-.26.69.93.93,0,0,1-.7.26,1,1,0,0,1-.72-.26A.9.9,0,0,1,437.85,329.91Zm1.83,10.25H438v-8.1h1.72Z" transform="translate(-219.4 -244.69)"/><path class="cls-3" d="M445.31,340.3a3.53,3.53,0,0,1-2.79-1.07,4.46,4.46,0,0,1-1-3.08,4.53,4.53,0,0,1,1-3.14,3.72,3.72,0,0,1,2.89-1.1,5.36,5.36,0,0,1,2.31.48l-.52,1.38a5.28,5.28,0,0,0-1.8-.42q-2.1,0-2.1,2.79a3.32,3.32,0,0,0,.52,2,1.81,1.81,0,0,0,1.54.69,4.4,4.4,0,0,0,2.17-.57v1.5a3.52,3.52,0,0,1-1,.39A5.76,5.76,0,0,1,445.31,340.3Z" transform="translate(-219.4 -244.69)"/><path class="cls-3" d="M454.45,340.16l-.34-1.13h-.06a3.34,3.34,0,0,1-1.18,1,3.67,3.67,0,0,1-1.52.26,2.59,2.59,0,0,1-1.87-.64,2.44,2.44,0,0,1-.67-1.82,2.13,2.13,0,0,1,.93-1.89,5.34,5.34,0,0,1,2.84-.7l1.4,0v-.43a1.63,1.63,0,0,0-.37-1.17,1.49,1.49,0,0,0-1.12-.38,3.94,3.94,0,0,0-1.19.18c-.38.13-.75.27-1.1.43l-.56-1.23a6,6,0,0,1,1.44-.52,6.7,6.7,0,0,1,1.48-.18,3.59,3.59,0,0,1,2.34.67,2.66,2.66,0,0,1,.78,2.12v5.46ZM451.89,339a2.11,2.11,0,0,0,1.5-.53A1.9,1.9,0,0,0,454,337v-.7l-1,0a3.59,3.59,0,0,0-1.77.41,1.25,1.25,0,0,0-.55,1.11,1.11,1.11,0,0,0,.32.84A1.39,1.39,0,0,0,451.89,339Z" transform="translate(-219.4 -244.69)"/><path class="cls-3" d="M459.72,340.16H458v-11.4h1.72Z" transform="translate(-219.4 -244.69)"/><path class="cls-3" d="M472.72,340.16l-1.07-3h-4.09l-1.05,3h-1.85l4-10.75h1.9l4,10.75Zm-1.53-4.48-1-2.92c-.08-.19-.18-.5-.31-.92s-.22-.73-.26-.92a18.72,18.72,0,0,1-.58,2l-1,2.8Z" transform="translate(-219.4 -244.69)"/><path class="cls-3" d="M482.85,340.16h-1.73v-5a2.19,2.19,0,0,0-.38-1.4,1.45,1.45,0,0,0-1.2-.46A1.9,1.9,0,0,0,478,334a3.53,3.53,0,0,0-.51,2.16v4h-1.72v-8.1h1.35l.24,1.06h.09a2.34,2.34,0,0,1,1-.89,3.49,3.49,0,0,1,1.49-.32c1.95,0,2.92,1,2.92,3Z" transform="translate(-219.4 -244.69)"/><path class="cls-3" d="M490.22,340.16l-.34-1.13h-.06a3.34,3.34,0,0,1-1.18,1,3.71,3.71,0,0,1-1.52.26,2.59,2.59,0,0,1-1.87-.64,2.44,2.44,0,0,1-.67-1.82,2.13,2.13,0,0,1,.93-1.89,5.34,5.34,0,0,1,2.84-.7l1.4,0v-.43a1.67,1.67,0,0,0-.37-1.17,1.49,1.49,0,0,0-1.12-.38,3.9,3.9,0,0,0-1.19.18,10.94,10.94,0,0,0-1.1.43l-.56-1.23a6,6,0,0,1,1.44-.52,6.7,6.7,0,0,1,1.48-.18,3.59,3.59,0,0,1,2.34.67,2.66,2.66,0,0,1,.78,2.12v5.46ZM487.66,339a2.11,2.11,0,0,0,1.5-.53,1.9,1.9,0,0,0,.57-1.47v-.7l-1,0a3.59,3.59,0,0,0-1.77.41,1.23,1.23,0,0,0-.55,1.11,1.11,1.11,0,0,0,.32.84A1.39,1.39,0,0,0,487.66,339Z" transform="translate(-219.4 -244.69)"/><path class="cls-3" d="M495.49,340.16h-1.73v-11.4h1.73Z" transform="translate(-219.4 -244.69)"/><path class="cls-3" d="M496.63,332.06h1.87l1.65,4.59a9,9,0,0,1,.5,1.85h.06a6.54,6.54,0,0,1,.24-1q.18-.58,1.86-5.46h1.86l-3.46,9.17c-.64,1.69-1.69,2.53-3.16,2.53a5.1,5.1,0,0,1-1.11-.12v-1.36a4.74,4.74,0,0,0,.89.08,1.82,1.82,0,0,0,1.75-1.44l.3-.76Z" transform="translate(-219.4 -244.69)"/><path class="cls-3" d="M508.83,338.91a4,4,0,0,0,1.26-.2V340a4,4,0,0,1-.74.21,4.73,4.73,0,0,1-.93.08c-1.63,0-2.45-.85-2.45-2.57v-4.37h-1.11v-.76l1.19-.63.59-1.71h1.06v1.8H510v1.3H507.7v4.34a1.22,1.22,0,0,0,.31.92A1.17,1.17,0,0,0,508.83,338.91Z" transform="translate(-219.4 -244.69)"/><path class="cls-3" d="M511.51,329.91a1,1,0,0,1,.25-.71,1,1,0,0,1,.73-.25,1,1,0,0,1,.7.25,1,1,0,0,1,.26.71.9.9,0,0,1-.26.69.94.94,0,0,1-.7.26,1,1,0,0,1-.73-.26A.94.94,0,0,1,511.51,329.91Zm1.82,10.25h-1.72v-8.1h1.72Z" transform="translate(-219.4 -244.69)"/><path class="cls-3" d="M519,340.3a3.53,3.53,0,0,1-2.79-1.07,4.46,4.46,0,0,1-1-3.08,4.53,4.53,0,0,1,1-3.14,3.72,3.72,0,0,1,2.89-1.1,5.36,5.36,0,0,1,2.31.48l-.52,1.38a5.28,5.28,0,0,0-1.8-.42q-2.1,0-2.1,2.79a3.32,3.32,0,0,0,.52,2,1.8,1.8,0,0,0,1.53.69,4.44,4.44,0,0,0,2.18-.57v1.5a3.52,3.52,0,0,1-1,.39A5.82,5.82,0,0,1,519,340.3Z" transform="translate(-219.4 -244.69)"/><path class="cls-3" d="M528.48,337.85a2.11,2.11,0,0,1-.86,1.82,4.17,4.17,0,0,1-2.48.63,5.85,5.85,0,0,1-2.6-.49v-1.48a6.41,6.41,0,0,0,2.66.66q1.59,0,1.59-1a.81.81,0,0,0-.17-.52,2.35,2.35,0,0,0-.58-.42,10.06,10.06,0,0,0-1.12-.5,5.26,5.26,0,0,1-1.9-1.08,2,2,0,0,1-.49-1.41,1.84,1.84,0,0,1,.84-1.61,3.93,3.93,0,0,1,2.28-.58,6.39,6.39,0,0,1,2.7.58l-.55,1.3a5.9,5.9,0,0,0-2.21-.55c-.91,0-1.36.26-1.36.78a.81.81,0,0,0,.35.65,8.76,8.76,0,0,0,1.55.72,7.34,7.34,0,0,1,1.46.71,1.92,1.92,0,0,1,.89,1.75Z" transform="translate(-219.4 -244.69)"/></svg>