<?xml version="1.0" encoding="utf-8"?>
<!-- Generator: Adobe Illustrator 15.0.0, SVG Export Plug-In . SVG Version: 6.00 Build 0)  -->
<!DOCTYPE svg PUBLIC "-//W3C//DTD SVG 1.1//EN" "http://www.w3.org/Graphics/SVG/1.1/DTD/svg11.dtd">
<svg version="1.1" id="Layer_1" xmlns="http://www.w3.org/2000/svg" xmlns:xlink="http://www.w3.org/1999/xlink" x="0px" y="0px"
	 width="150px" height="60px" viewBox="-4.229 -1.691 150 60" enable-background="new -4.229 -1.691 150 60" xml:space="preserve">
<g transform="translate(-52.11 -27.18)">
	<g transform="translate(52.11 27.18)">
		<g transform="translate(0)">
			<g transform="translate(113.236 14.157)">
				<path d="M28.017,16.985c1.564-7.658-3.375-15.134-11.032-16.698C9.327-1.278,1.85,3.662,0.285,11.32S3.66,26.453,11.319,28.017
					c0.294,0.061,0.59,0.111,0.887,0.152c0.646,0.083,1.297,0.126,1.947,0.129c5.576,0,10.632-3.271,12.916-8.357
					c-0.646-0.083-1.297-0.126-1.947-0.129c-2.357-0.004-4.679,0.583-6.752,1.707l-0.16,0.089
					c-4.127,2.237-9.287,0.705-11.523-3.422c-0.209-0.386-0.389-0.788-0.535-1.201H28.017z M14.151,5.659
					c3.601-0.002,6.812,2.267,8.01,5.663H6.157C7.346,7.926,10.552,5.654,14.151,5.659z"/>
			</g>
			<path d="M110.408,11.576c-0.002-4.525-2.092-8.797-5.663-11.576v17.007c-6.243-4.705-15.118-3.458-19.822,2.785
				s-3.458,15.117,2.785,19.822c5.108,3.85,12.164,3.795,17.212-0.134c1.594,1.376,3.464,2.394,5.484,2.985V11.576H110.408z
				 M96.254,36.797c-4.689-0.001-8.49-3.804-8.488-8.493s3.805-8.49,8.494-8.488c4.688,0.002,8.488,3.803,8.488,8.491
				c0,4.689-3.802,8.49-8.491,8.49C96.256,36.797,96.255,36.797,96.254,36.797z"/>
			<g transform="translate(28.311 14.154)">
				<path fill="#CA3725" d="M14.161,5.663c-4.689,0.001-8.49,3.805-8.488,8.494s3.805,8.49,8.494,8.488
					c2.526-0.001,4.92-1.127,6.533-3.071c0-0.011,0-0.011,0.011-0.021c0.03-0.049,0.067-0.093,0.111-0.129
					c0.647-0.789,1.376-1.505,2.176-2.138c0.938-0.739,1.968-1.354,3.064-1.829c0.014-0.014,0.031-0.023,0.05-0.029
					c0.708-0.304,1.439-0.551,2.187-0.736c-0.293,7.814-6.866,13.91-14.68,13.617c-7.814-0.293-13.911-6.866-13.618-14.68
					C0.294,5.815,6.867-0.282,14.681,0.012c3.268,0.123,6.392,1.373,8.843,3.538c-1.241,1.55-2.198,3.309-2.824,5.194
					C19.09,6.79,16.691,5.66,14.161,5.663z"/>
				<path fill="#CA3725" d="M45.537,25.28c-5.368,4.225-12.989,4.007-18.105-0.52c1.245-1.543,2.203-3.299,2.828-5.181
					c2.995,3.608,8.348,4.106,11.957,1.11c3.608-2.994,4.106-8.348,1.11-11.956c-2.995-3.608-8.348-4.106-11.956-1.111
					c-0.404,0.335-0.775,0.707-1.111,1.111c-0.05,0.072-0.1,0.129-0.15,0.19c-1.392,1.678-3.147,3.017-5.133,3.916
					c-0.746,0.34-1.521,0.611-2.316,0.809c0.1-2.89,1.085-5.679,2.824-7.99c0.572-0.77,1.225-1.477,1.947-2.108
					C33.27-1.643,42.213-1.12,47.407,4.719c5.193,5.838,4.671,14.782-1.167,19.976C46.011,24.897,45.777,25.093,45.537,25.28z"/>
			</g>
			<path d="M18.922,22.985l-1.843,4.883l-2.556,6.748L9.637,22.715c-1.72-4.187-5.276-7.345-9.636-8.559l11.582,28.215L6.19,56.618
				c4.324-1.339,7.788-4.598,9.389-8.83l12.732-33.634C23.988,15.493,20.523,18.751,18.922,22.985z"/>
		</g>
	</g>
</g>
</svg>
